<?xml version="1.0" standalone="no"?>
<!DOCTYPE svg PUBLIC "-//W3C//DTD SVG 20010904//EN"
 "http://www.w3.org/TR/2001/REC-SVG-20010904/DTD/svg10.dtd">
<svg version="1.0" xmlns="http://www.w3.org/2000/svg"
 width="790.000000pt" height="980.000000pt" viewBox="0 0 790.000000 980.000000"
 preserveAspectRatio="xMidYMid meet">

<g transform="translate(0.000000,980.000000) scale(0.100000,-0.100000)"
fill="#000000" stroke="none">
<path d="M5541 9785 c-209 -39 -535 -184 -786 -349 -294 -193 -569 -471 -739
-746 -219 -353 -329 -725 -330 -1110 0 -150 2 -171 23 -225 30 -76 90 -135
168 -166 87 -34 321 -39 489 -10 511 86 965 401 1287 891 160 244 306 601 361
887 54 277 56 569 5 678 -24 52 -81 105 -146 136 -57 28 -224 35 -332 14z
m-104 -671 c10 -26 -15 -139 -59 -271 -47 -143 -168 -390 -253 -518 -187 -279
-522 -514 -802 -560 -41 -6 -43 -6 -43 18 0 38 64 254 110 370 150 383 503
738 935 939 90 42 103 45 112 22z"/>
<path d="M5505 7313 c-264 -34 -450 -81 -894 -228 -338 -111 -506 -155 -590
-155 -78 0 -196 32 -391 105 -107 40 -247 89 -310 109 -1017 316 -1885 94
-2542 -650 -367 -416 -598 -868 -702 -1376 -151 -738 -63 -1542 279 -2547 146
-428 284 -700 609 -1201 491 -758 749 -1046 1080 -1210 191 -94 345 -130 552
-130 216 0 416 34 884 150 376 93 516 121 645 127 95 4 126 2 230 -22 177 -40
402 -107 554 -165 264 -101 422 -127 716 -117 330 11 517 69 772 239 268 179
719 713 967 1147 159 276 410 802 485 1015 48 134 53 168 40 241 -20 118 -70
170 -266 279 -309 172 -536 417 -705 761 -75 153 -130 313 -152 446 -39 227
-45 591 -12 744 66 310 255 584 628 907 270 234 299 327 173 565 -248 470
-935 882 -1605 963 -79 9 -379 12 -445 3z m335 -593 c246 -10 288 -19 483
-103 199 -85 374 -198 557 -359 52 -46 53 -48 40 -73 -8 -15 -70 -85 -137
-156 -241 -255 -359 -414 -457 -621 -67 -140 -106 -250 -143 -404 -28 -118
-28 -122 -28 -444 0 -363 10 -459 69 -694 120 -472 374 -879 751 -1205 57 -49
139 -113 182 -142 43 -28 80 -54 82 -55 19 -16 -264 -582 -432 -864 -181 -303
-517 -708 -706 -850 -156 -117 -302 -169 -496 -177 -177 -7 -250 8 -563 118
-501 176 -599 199 -854 199 -252 0 -372 -20 -928 -155 -428 -104 -503 -118
-660 -119 -115 0 -132 2 -212 30 -219 78 -382 240 -695 694 -486 705 -713
1141 -868 1665 -154 521 -218 930 -219 1395 0 277 15 440 59 652 82 399 301
798 613 1120 287 296 565 446 942 510 97 16 431 16 535 -1 189 -30 374 -85
730 -216 256 -95 323 -113 445 -121 172 -12 369 29 795 164 600 190 683 211
875 220 14 1 122 -3 240 -8z"/>
</g>
</svg>
